<svg xmlns="http://www.w3.org/2000/svg" viewBox="0 0 176 192" width="176" height="192" fill="none">
  <polygon fill="#FBBC05" points="113.7 158.1 150.1 158.1 150.1 121.7 175.8 96 150.1 70.3 150.1 33.9 113.7 33.9 88 8.2 62.3 33.9 25.9 33.9 25.9 70.3 0.2 96 25.9 121.7 25.9 158.1 62.3 158.1 88 183.8"/>
  <circle cx="88" cy="96" r="58.7" stroke="#fff" stroke-width="8"/>
  <path fill="#fff" d="M90.8 68.5 78.4 123.4h7.4l12.4-54.9h-7.4ZM71.9 75.7 48 94.2v3.4l23.9 18.5v-9l-14.5-11.1 14.5-11.3v-9ZM104.1 75.7v9L118.6 96l-14.5 11.3v9l23.9-18.5v-3.4l-23.9-18.7Z"/>
</svg>
