<svg width="96" height="96" viewBox="0 0 96 96" fill="none" xmlns="http://www.w3.org/2000/svg">
  <path d="M47 96C71.8528 96 92 75.8528 92 51C92 26.1472 71.8528 6 47 6C22.1472 6 2 26.1472 2 51C2 75.8528 22.1472 96 47 96Z" fill="#111111"/>
  <path d="M81 45C81 67.1629 63.0214 85 40.9999 85C18.9787 85 1 67.1629 1 45C1 22.8374 18.9787 5 40.9999 5C63.0214 5 81 22.8374 81 45Z" fill="#2A2A2A" stroke="#111111" stroke-width="2"/>
  <path d="M59.3151 57.9226C56.5022 61.8991 52.4785 64.8591 47.8448 66.3603C43.2111 67.8616 38.2161 67.8237 33.6057 66.2523C28.9953 64.6808 25.017 61.6601 22.2648 57.6413C19.5127 53.6226 18.1343 48.8213 18.3357 43.9546C18.5371 39.088 20.3073 34.417 23.3821 30.6393C26.4569 26.8617 30.6712 24.18 35.3956 22.9948C40.12 21.8096 45.1011 22.1844 49.5949 24.0634C54.0888 25.9424 57.8542 29.2246 60.329 33.4199L40.8878 44.8878L59.3151 57.9226Z" fill="#FFFFFF"/>
</svg>
